:version 1.10
:name ASF
:units
  mass 1
  length 1
  angle deg
:documentation
  ASF file generated by Kaydara
:root
  axis xyz
  order  tx ty tz rx ry rz
  position 0 0 0
  orientation 0 0 0
:bonedata
  begin
    id 1
    name LeftUpLegDummy
    direction 1 -2.30186e-007 -8.31532e-007
    length 2.93387
    axis 0 0 0 xyz
  end
  begin
    id 2
    name LeftUpLeg
    direction -1.82929e-007 -1 -1.48925e-009
    length 17.3336
    axis -3.48766 0.00143442 -0.000521554 xyz
    dof rx ry rz
  end
  begin
    id 3
    name LeftLeg
    direction -1.82929e-007 -1 -5.23717e-011
    length 14.9995
    axis 3.68178 -0.00654042 -0.000282425 xyz
    dof rx ry rz
  end
  begin
    id 4
    name LeftFoot
    direction 8.31532e-007 -4.54534e-011 1
    length 6.74421
    axis 1.87234e-006 4.66016e-005 -5.96866e-006 xyz
    dof rx ry rz
  end
  begin
    id 5
    name LeftToes
    direction 0.00818058 -0.00485161 0.999955
    length 3.85048
    axis 1.06247e-005 4.65869e-005 -5.96999e-006 xyz
    dof rx ry rz
  end
  begin
    id 6
    name SpineDummy
    direction -5.8607e-008 0.943407 -0.331637
    length 5.93572
    axis 0 0 0 xyz
  end
  begin
    id 7
    name Spine
    direction -1.04988e-007 0.999988 0.00495137
    length 10.1015
    axis -0.001389 0.000121417 6.61666e-006 xyz
    dof rx ry rz
  end
  begin
    id 8
    name Spine1
    direction 0 0 0
    length 0
    axis -0.001389 0.00012144 6.56766e-006 xyz
    dof rx ry rz
  end
  begin
    id 9
    name RightShoulderDummy
    direction -0.98348 0.17941 -0.0240696
    length 3.59882
    axis -0.001389 0.00012144 6.56766e-006 xyz
  end
  begin
    id 10
    name RightShoulder
    direction -0.978693 0.204882 0.0135597
    length 2.70001
    axis 0.215806 0.000203631 -0.00679732 xyz
    dof rx ry rz
  end
  begin
    id 11
    name RightArm
    direction -1 3.85509e-006 8.31394e-007
    length 10.2459
    axis -23.2009 -0.134239 -0.964098 xyz
    dof rx ry rz
  end
  begin
    id 12
    name RightForeArm
    direction -1 3.85569e-006 8.3129e-007
    length 8.16799
    axis -9.92322 0.0658061 0.17887 xyz
    dof rx ry rz
  end
  begin
    id 13
    name RightHand
    direction -0.992843 -0.0414604 0.112003
    length 5.28593
    axis -0.00960638 0.00330669 -0.185225 xyz
    dof rx ry rz
  end
  begin
    id 14
    name LeftShoulder1Dummy
    direction 0.983523 0.179172 -0.0240748
    length 3.59866
    axis -0.001389 0.00012144 6.56766e-006 xyz
  end
  begin
    id 15
    name LeftShoulder1
    direction 0.978627 0.205195 0.0135605
    length 2.70019
    axis -0.001389 0.00012144 6.57583e-006 xyz
    dof rx ry rz
  end
  begin
    id 16
    name LeftArm
    direction 1 3.51895e-006 -8.60188e-007
    length 10.2459
    axis -23.1894 0.134785 0.967513 xyz
    dof rx ry rz
  end
  begin
    id 17
    name LeftForeArm
    direction 1 3.51921e-006 -7.32029e-007
    length 8.16799
    axis -9.91835 -0.0656957 -0.177789 xyz
    dof rx ry rz
  end
  begin
    id 18
    name LeftHand
    direction 0.992938 -0.0411636 0.11126
    length 5.32135
    axis -0.00960237 -0.00340661 0.185177 xyz
    dof rx ry rz
  end
  begin
    id 19
    name HEadDummy
    direction 1.01974e-006 0.999861 -0.016675
    length 2.99946
    axis -0.001389 0.00012144 6.56766e-006 xyz
  end
  begin
    id 20
    name HEad
    direction -0.0222689 0.980941 0.193023
    length 5.12695
    axis -0.001389 0.00012144 6.56766e-006 xyz
    dof rx ry rz
  end
  begin
    id 21
    name RightUpLegDummy
    direction -1 2.30186e-007 8.31532e-007
    length 2.93387
    axis 0 0 0 xyz
  end
  begin
    id 22
    name RightUpLeg
    direction -1.82966e-007 -1 1.56832e-007
    length 17.3336
    axis -3.4909 -0.000906625 0.00028951 xyz
    dof rx ry rz
  end
  begin
    id 23
    name RightLeg
    direction -1.82786e-007 -1 -1.80317e-007
    length 14.9995
    axis 3.68513 0.0193739 -0.131021 xyz
    dof rx ry rz
  end
  begin
    id 24
    name RightFoot
    direction 8.31721e-007 -4.63324e-011 1
    length 6.74421
    axis 4.81691e-005 -0.120479 -0.188785 xyz
    dof rx ry rz
  end
  begin
    id 25
    name RightToes
    direction 0.00124746 -0.014064 0.9999
    length 3.85082
    axis 0.000481921 0.542163 -0.142575 xyz
    dof rx ry rz
  end
:hierarchy
  begin
    root LeftUpLegDummy SpineDummy RightUpLegDummy
    LeftUpLegDummy LeftUpLeg
    LeftUpLeg LeftLeg
    LeftLeg LeftFoot
    LeftFoot LeftToes
    SpineDummy Spine
    Spine Spine1
    Spine1 RightShoulderDummy LeftShoulder1Dummy HEadDummy
    RightShoulderDummy RightShoulder
    RightShoulder RightArm
    RightArm RightForeArm
    RightForeArm RightHand
    LeftShoulder1Dummy LeftShoulder1
    LeftShoulder1 LeftArm
    LeftArm LeftForeArm
    LeftForeArm LeftHand
    HEadDummy HEad
    RightUpLegDummy RightUpLeg
    RightUpLeg RightLeg
    RightLeg RightFoot
    RightFoot RightToes
  end

:SAMPLES-PER-SECOND 30
:FULLY-SPECIFIED
:DEGREES
66
root  4.16456 34.2326 -6.18591 7.3187 -27.7506 -0.229106
LeftUpLeg  -15.3167 24.5499 1.60927
LeftLeg  9.37302 19.2303 1.87899
LeftFoot  7.55577 -0.167852 2.54155
LeftToes  -16.3074 8.556e-007 1.17171e-007
Spine  6.3018 -6.02854 0.910416
Spine1  12.4027 -12.508 1.68952
RightShoulder  0.00608171 3.48322 7.09354
RightArm  -31.6495 -14.8889 75.7865
RightForeArm  29.4724 21.4933 3.97483
RightHand  1.12556 -12.7585 -9.66714
LeftShoulder1  0.0449273 -0.700837 -0.477384
LeftArm  11.9144 -30.146 -81.0175
LeftForeArm  129.44 -48.9666 -168.019
LeftHand  1.56026 13.4692 12.7793
HEad  9.63165 -23.8487 -3.4572
RightUpLeg  -25.9303 1.29879 -4.62738
RightLeg  24.6032 14.1991 5.35738
RightFoot  8.05203 -0.117887 2.05219
RightToes  -40.5806 -0.223138 -0.318379
67
root  3.77601 34.1913 -6.30966 7.78602 -25.507 -0.218228
LeftUpLeg  -15.9519 23.8124 1.96168
LeftLeg  8.81388 17.8516 1.57611
LeftFoot  9.1573 -0.229708 2.86777
LeftToes  -16.9336 8.556e-007 1.17171e-007
Spine  5.98814 -5.48493 1.26014
Spine1  11.7509 -11.3742 2.36668
RightShoulder  0.00256717 3.69066 7.14405
RightArm  -34.7225 -17.3439 74.421
RightForeArm  31.3074 18.2278 3.32189
RightHand  1.25266 -13.3011 -10.3375
LeftShoulder1  0.0363042 0.021635 -0.619112
LeftArm  14.3796 -29.1707 -81.9608
LeftForeArm  129.43 -48.7884 -168.093
LeftHand  1.68143 13.6805 13.5721
HEad  12.4206 -23.1243 -5.08668
RightUpLeg  -21.8083 1.58496 -5.17536
RightLeg  23.9594 9.17335 3.36881
RightFoot  3.80346 -0.00668145 0.578667
RightToes  -34.8885 -0.178991 -0.284466
68
root  3.3142 34.0824 -6.41184 7.45214 -23.4066 0.807763
LeftUpLeg  -16.3675 22.7096 1.74008
LeftLeg  8.92986 16.8771 1.52655
LeftFoot  10.4094 -0.282621 3.10189
LeftToes  -17.9197 8.556e-007 1.17171e-007
Spine  5.57364 -4.67743 1.22941
Spine1  10.9779 -9.64364 2.26525
RightShoulder  0.000704636 4.21769 7.13064
RightArm  -40.1099 -20.5581 74.0631
RightForeArm  33.5549 15.148 2.7286
RightHand  1.31226 -13.6734 -10.5377
LeftShoulder1  0.0237335 0.511588 -0.683678
LeftArm  16.6164 -27.9481 -81.8867
LeftForeArm  129.23 -48.428 -168.243
LeftHand  1.89265 13.9798 14.9687
HEad  15.7927 -22.7318 -6.47994
RightUpLeg  -16.7431 0.798216 -5.84037
RightLeg  20.0499 6.58271 1.92768
RightFoot  -0.541007 -0.00222056 -0.0929045
RightToes  -36.1045 -0.188136 -0.292076
69
root  2.85864 34.0363 -6.56769 7.48595 -21.9211 0.554651
LeftUpLeg  -16.7638 21.5669 2.82075
LeftLeg  9.4599 16.6314 1.65789
LeftFoot  11.3152 -0.328282 3.31285
LeftToes  -18.9988 8.556e-007 1.17171e-007
Spine  5.32421 -3.87132 1.43434
Spine1  10.435 -8.07995 2.80611
RightShoulder  0.00388266 5.04237 7.88451
RightArm  -43.9191 -22.8071 72.8119
RightForeArm  34.6442 11.4178 2.03465
RightHand  1.37208 -14.2358 -10.58
LeftShoulder1  0.0270522 1.16798 -1.12902
LeftArm  19.1285 -27.0972 -81.4913
LeftForeArm  129.163 -48.6359 -168.158
LeftHand  1.98266 13.9927 15.6743
HEad  19.3409 -21.9676 -7.05752
RightUpLeg  -12.6811 -1.90029 -4.48768
RightLeg  12.4296 7.50792 1.15364
RightFoot  0.920695 0.00229058 0.0923936
RightToes  -35.6977 -0.185059 -0.289552
70
root  2.45721 34.1019 -6.73766 8.08226 -20.5728 -1.3184
LeftUpLeg  -17.2798 20.6082 5.27809
LeftLeg  10.1289 16.5988 1.84779
LeftFoot  12.0985 -0.369658 3.48713
LeftToes  -19.7889 8.556e-007 1.17171e-007
Spine  5.13365 -3.37476 2.17013
Spine1  9.88906 -7.32119 4.55147
RightShoulder  0.026573 5.70955 8.849
RightArm  -44.9601 -23.5422 70.2871
RightForeArm  35.3392 8.14792 1.4425
RightHand  1.35734 -14.6852 -10.1301
LeftShoulder1  0.0409072 1.48574 -1.28999
LeftArm  21.6802 -25.7214 -82.2083
LeftForeArm  129.595 -49.0688 -167.975
LeftHand  2.04746 14.003 16.1795
HEad  23.3844 -20.5207 -7.47149
RightUpLeg  -10.5312 -5.54251 -1.8589
RightLeg  8.28001 10.2531 0.8231
RightFoot  3.25687 -0.00445299 0.534067
RightToes  -34.814 -0.178437 -0.283993
71
root  2.06424 34.1068 -6.88898 8.05514 -19.5198 -1.32574
LeftUpLeg  -17.1859 20.5223 5.85131
LeftLeg  9.27862 15.7937 1.52679
LeftFoot  13.449 -0.43444 3.68335
LeftToes  -20.521 8.556e-007 1.17171e-007
Spine  4.67554 -3.09921 2.38716
Spine1  9.00479 -6.72241 4.94838
RightShoulder  0.0310238 5.88694 8.32555
RightArm  -45.3425 -23.7602 69.392
RightForeArm  37.3383 6.85378 1.2096
RightHand  1.33723 -15.4907 -9.4343
LeftShoulder1  0.0334447 2.38782 -1.54878
LeftArm  23.8882 -23.6701 -82.5597
LeftForeArm  130.765 -48.5261 -168.197
LeftHand  2.09758 13.8105 16.8138
HEad  27.1037 -17.9611 -8.54009
RightUpLeg  -9.88497 -7.52147 -1.08448
RightLeg  7.21198 11.5306 0.709884
RightFoot  3.43272 -0.00819955 0.651051
RightToes  -33.7022 -0.170228 -0.276856
72
root  1.71577 34.0747 -7.1066 8.09615 -19.3672 -1.52599
LeftUpLeg  -16.7153 20.3006 6.72186
LeftLeg  7.91268 15.8163 1.15421
LeftFoot  14.6571 -0.51887 4.0328
LeftToes  -21.0943 8.556e-007 1.17171e-007
Spine  4.40048 -2.90727 2.67126
Spine1  8.48477 -6.27318 5.4345
RightShoulder  0.0322818 6.26211 7.45675
RightArm  -46.0042 -22.6847 68.409
RightForeArm  38.9992 6.77101 1.19314
RightHand  1.35102 -15.9226 -9.26429
LeftShoulder1  0.0256876 3.03312 -2.1799
LeftArm  25.4707 -22.3139 -82.2218
LeftForeArm  131.998 -47.8647 -168.462
LeftHand  2.0966 13.3901 17.3416
HEad  29.5104 -15.4053 -9.17571
RightUpLeg  -11.5936 -7.42314 -0.0778212
RightLeg  10.6695 11.0007 1.34295
RightFoot  1.84459 0.000907267 0.321068
RightToes  -31.6598 -0.155516 -0.263335
73
root  1.39337 34.033 -7.28663 8.05569 -19.1027 -2.30034
LeftUpLeg  -15.6919 19.352 8.29537
LeftLeg  6.09882 16.4703 0.684974
LeftFoot  15.9504 -0.640884 4.57209
LeftToes  -22.0606 8.556e-007 1.17171e-007
Spine  4.30715 -2.99953 3.10751
Spine1  8.26996 -6.45828 6.25434
RightShoulder  0.0458723 6.35563 7.12836
RightArm  -44.9305 -20.7842 66.8356
RightForeArm  37.5758 8.05377 1.42352
RightHand  1.39752 -15.5958 -9.80454
LeftShoulder1  0.0234633 3.17706 -2.60381
LeftArm  26.1747 -21.4016 -82.1057
LeftForeArm  133.148 -47.7145 -168.518
LeftHand  2.02974 12.9372 17.3813
HEad  31.683 -13.6746 -9.16732
RightUpLeg  -12.3397 -7.05258 1.25048
RightLeg  12.7976 10.4168 1.66446
RightFoot  0.886435 0.00195048 0.125311
RightToes  -29.4902 -0.140426 -0.248407
74
root  1.06579 33.98 -7.41383 7.93185 -18.0498 -2.89316
LeftUpLeg  -14.7764 18.0018 9.61986
LeftLeg  4.17592 16.8608 0.142862
LeftFoot  17.5127 -0.792781 5.14361
LeftToes  -23.3278 8.556e-007 1.17171e-007
Spine  4.10874 -3.3928 3.51154
Spine1  7.86208 -7.19542 6.9325
RightShoulder  0.0624975 6.00686 7.22533
RightArm  -43.1735 -18.904 65.3313
RightForeArm  34.2581 10.7138 1.90653
RightHand  1.42667 -15.076 -10.3758
LeftShoulder1  0.0177169 3.37952 -3.11801
LeftArm  27.1798 -20.6112 -82.1378
LeftForeArm  133.618 -47.4964 -168.603
LeftHand  1.98941 12.6049 17.4892
HEad  33.7715 -12.5637 -8.96814
RightUpLeg  -12.0821 -6.94192 2.39795
RightLeg  13.0161 9.38222 1.5372
RightFoot  0.450847 0.00133386 0.0384639
RightToes  -28.6936 -0.135029 -0.242785
75
root  0.778783 33.9283 -7.49737 7.99875 -16.8919 -3.44175
LeftUpLeg  -14.4129 17.1865 10.6232
LeftLeg  2.83996 16.7477 -0.242911
LeftFoot  18.7243 -0.902091 5.46747
LeftToes  -24.0965 8.556e-007 1.17171e-007
Spine  3.84775 -3.67502 3.87333
Spine1  7.35062 -7.67057 7.49401
RightShoulder  0.071271 5.25894 7.60579
RightArm  -41.1516 -17.0859 63.9703
RightForeArm  30.4099 14.2355 2.5591
RightHand  1.43132 -14.595 -10.7677
LeftShoulder1  0.0125106 3.47235 -3.66596
LeftArm  28.739 -20.2906 -82.4919
LeftForeArm  132.953 -47.2387 -168.707
LeftHand  2.0029 12.6512 17.543
HEad  35.474 -12.0019 -8.90479
RightUpLeg  -11.7963 -8.31695 3.51834
RightLeg  12.7833 9.66693 1.54335
RightFoot  0.0963471 0.00537322 -0.0149862
RightToes  -27.9869 -0.130307 -0.237734
76
root  0.524222 33.8998 -7.60568 8.11117 -16.4662 -4.2357
LeftUpLeg  -14.4839 17.6447 11.7166
LeftLeg  2.67837 16.0953 -0.27851
LeftFoot  19.3579 -0.925424 5.42202
LeftToes  -24.6182 8.556e-007 1.17171e-007
Spine  3.61999 -3.65414 4.24401
Spine1  6.87942 -7.57534 8.14615
RightShoulder  0.0651274 4.32691 7.88322
RightArm  -38.4092 -15.2899 62.7845
RightForeArm  26.4246 18.0314 3.286
RightHand  1.43092 -14.0659 -11.1849
LeftShoulder1  0.0100242 3.34429 -3.76308
LeftArm  29.9317 -19.8415 -83.1963
LeftForeArm  132.233 -47.3977 -168.647
LeftHand  2.00471 12.5374 17.7201
HEad  36.8663 -11.868 -8.92408
RightUpLeg  -11.1238 -8.0116 4.73697
RightLeg  11.5155 9.08454 1.24683
RightFoot  0.429857 0.00530578 0.0387317
RightToes  -27.7076 -0.128458 -0.235905
